<svg width="50" height="42" viewBox="0 0 50 42" fill="none" xmlns="http://www.w3.org/2000/svg">
<rect x="0.5" y="2.5" width="49" height="39" rx="9.5" fill="black" stroke="white"/>
<path d="M17.2934 12.712C19.1414 12.712 20.6254 13.356 21.7454 14.644C22.8841 15.932 23.4534 17.8733 23.4534 20.468C23.4534 22.1667 23.1921 23.604 22.6694 24.78C22.1654 25.9373 21.4468 26.8147 20.5134 27.412C19.5988 27.9907 18.5161 28.28 17.2654 28.28C16.5001 28.28 15.8188 28.1773 15.2214 27.972C14.6241 27.7667 14.1108 27.5053 13.6814 27.188C13.2708 26.852 12.9161 26.488 12.6174 26.096H12.4494C12.4868 26.4133 12.5241 26.8147 12.5614 27.3C12.5988 27.7853 12.6174 28.2053 12.6174 28.56V34.72H10.1534V12.992H12.1694L12.5054 15.036H12.6174C12.9161 14.6067 13.2708 14.2147 13.6814 13.86C14.1108 13.5053 14.6148 13.2253 15.1934 13.02C15.7908 12.8147 16.4908 12.712 17.2934 12.712ZM16.8454 14.784C15.8374 14.784 15.0254 14.98 14.4094 15.372C13.7934 15.7453 13.3454 16.3147 13.0654 17.08C12.7854 17.8453 12.6361 18.816 12.6174 19.992V20.468C12.6174 21.7 12.7481 22.7453 13.0094 23.604C13.2708 24.4627 13.7094 25.116 14.3254 25.564C14.9601 26.012 15.8188 26.236 16.9014 26.236C17.8161 26.236 18.5628 25.984 19.1414 25.48C19.7388 24.976 20.1774 24.2947 20.4574 23.436C20.7561 22.5587 20.9054 21.56 20.9054 20.44C20.9054 18.7227 20.5694 17.3507 19.8974 16.324C19.2441 15.2973 18.2268 14.784 16.8454 14.784ZM32.7 12.712C33.6893 12.712 34.576 12.8987 35.36 13.272C36.1627 13.6453 36.844 14.2147 37.404 14.98H37.544L37.88 12.992H39.84V28.252C39.84 29.6707 39.5973 30.856 39.112 31.808C38.6267 32.7787 37.8893 33.5067 36.9 33.992C35.9107 34.4773 34.6507 34.72 33.12 34.72C32.0373 34.72 31.0387 34.636 30.124 34.468C29.228 34.3187 28.4253 34.0853 27.716 33.768V31.5C28.2013 31.7427 28.7333 31.948 29.312 32.116C29.8907 32.3027 30.516 32.4427 31.188 32.536C31.86 32.6293 32.5507 32.676 33.26 32.676C34.548 32.676 35.556 32.2933 36.284 31.528C37.0307 30.7813 37.404 29.7547 37.404 28.448V27.86C37.404 27.636 37.4133 27.3187 37.432 26.908C37.4507 26.4787 37.4693 26.18 37.488 26.012H37.376C36.8533 26.7773 36.2 27.3467 35.416 27.72C34.6507 28.0933 33.7547 28.28 32.728 28.28C30.7867 28.28 29.2653 27.5987 28.164 26.236C27.0813 24.8733 26.54 22.9693 26.54 20.524C26.54 18.9187 26.7827 17.5373 27.268 16.38C27.772 15.204 28.4813 14.2987 29.396 13.664C30.3107 13.0293 31.412 12.712 32.7 12.712ZM33.036 14.784C32.196 14.784 31.4773 15.008 30.88 15.456C30.3013 15.904 29.8533 16.5573 29.536 17.416C29.2373 18.2747 29.088 19.32 29.088 20.552C29.088 22.4 29.424 23.8187 30.096 24.808C30.7867 25.7787 31.7853 26.264 33.092 26.264C33.8573 26.264 34.5107 26.1707 35.052 25.984C35.5933 25.7787 36.0413 25.4707 36.396 25.06C36.7507 24.6307 37.012 24.0893 37.18 23.436C37.348 22.7827 37.432 22.008 37.432 21.112V20.524C37.432 19.1613 37.2733 18.06 36.956 17.22C36.6573 16.38 36.1813 15.764 35.528 15.372C34.8747 14.98 34.044 14.784 33.036 14.784Z" fill="white"/>
</svg>
