<svg width="825" height="76" viewBox="0 0 825 76" fill="none" xmlns="http://www.w3.org/2000/svg">
<path d="M6.624 0.351995C15.328 0.351995 21.984 2.976 26.592 8.224C31.264 13.472 33.6 20.032 33.6 27.904V29.152C33.6 37.024 31.296 43.584 26.688 48.832C22.144 54.016 15.456 56.608 6.624 56.608H3.36V76H0V53.44H0.192C0.256 53.44 0.608 53.44 1.248 53.44C1.888 53.44 2.592 53.44 3.36 53.44H6.432C14.304 53.44 20.224 51.168 24.192 46.624C28.16 42.08 30.144 36.224 30.144 29.056V28C30.144 20.704 28.16 14.784 24.192 10.24C20.224 5.696 14.304 3.424 6.432 3.424H4.32C3.68 3.424 2.24 3.424 0 3.424V0.351995H6.624ZM67.245 53.056L80.109 76H76.269L64.365 54.4C61.037 55.744 57.165 56.416 52.749 56.416H49.965C49.325 56.416 48.045 56.384 46.125 56.32V53.248C47.277 53.248 48.365 53.248 49.389 53.248H52.557C60.429 53.248 66.381 50.976 70.413 46.432C74.445 41.888 76.461 36.064 76.461 28.96V27.904C76.461 20.736 74.445 14.88 70.413 10.336C66.381 5.728 60.429 3.424 52.557 3.424H49.389V30.88C48.301 30.88 47.213 30.848 46.125 30.784V0.351995H52.749C61.453 0.351995 68.141 2.944 72.813 8.128C77.549 13.312 79.917 19.84 79.917 27.712V29.056C79.917 34.368 78.829 39.136 76.653 43.36C74.477 47.52 71.341 50.752 67.245 53.056ZM126.225 76C119.569 76 113.521 74.592 108.081 71.776L109.521 68.992C114.513 71.616 120.081 72.928 126.225 72.928C136.081 72.928 144.433 69.504 151.281 62.656C154.609 59.264 157.137 55.648 158.865 51.808C160.593 47.904 161.457 43.488 161.457 38.56C161.393 28.704 157.969 20.448 151.185 13.792C144.401 7.008 135.889 3.584 125.649 3.51999C119.313 3.584 113.489 5.152 108.177 8.224C102.801 11.296 98.545 15.616 95.409 21.184L92.625 19.648C96.081 13.632 100.721 8.928 106.545 5.536C112.497 2.208 118.865 0.511997 125.649 0.447994C136.657 0.511997 145.905 4.192 153.393 11.488C160.881 18.848 164.625 27.872 164.625 38.56C164.625 43.936 163.665 48.736 161.745 52.96C159.889 57.184 157.105 61.12 153.393 64.768C145.905 72.256 136.849 76 126.225 76ZM199.558 76C192.582 75.232 187.078 71.616 183.046 65.152C179.078 58.688 177.094 50.272 177.094 39.904V36.352C177.094 25.536 179.334 16.864 183.814 10.336C188.358 3.744 194.31 0.447994 201.67 0.447994C205.062 0.447994 207.782 0.895994 209.83 1.79199C211.942 2.62399 213.926 3.776 215.782 5.248L213.862 7.648C212.454 6.56 210.886 5.6 209.158 4.768C207.43 3.936 204.934 3.51999 201.67 3.51999C197.894 3.51999 194.63 4.48 191.878 6.4C189.19 8.256 186.982 10.72 185.254 13.792C183.526 16.864 182.246 20.384 181.414 24.352C180.582 28.256 180.166 32.256 180.166 36.352V39.904C180.166 43.68 180.486 47.456 181.126 51.232C181.83 55.008 182.95 58.432 184.486 61.504C186.022 64.576 188.038 67.168 190.534 69.28C193.094 71.328 196.198 72.544 199.846 72.928L199.558 76ZM204.838 76L204.646 72.928C209.19 72.544 213.126 71.104 216.454 68.608V47.584H200.614V44.416H219.526V70.048L218.95 70.528C214.982 73.792 210.278 75.616 204.838 76ZM253.151 53.056L266.015 76H262.175L250.271 54.4C246.943 55.744 243.071 56.416 238.655 56.416H235.871C235.231 56.416 233.951 56.384 232.031 56.32V53.248C233.183 53.248 234.271 53.248 235.295 53.248H238.463C246.335 53.248 252.287 50.976 256.319 46.432C260.351 41.888 262.367 36.064 262.367 28.96V27.904C262.367 20.736 260.351 14.88 256.319 10.336C252.287 5.728 246.335 3.424 238.463 3.424H235.295V30.88C234.207 30.88 233.119 30.848 232.031 30.784V0.351995H238.655C247.359 0.351995 254.047 2.944 258.719 8.128C263.455 13.312 265.823 19.84 265.823 27.712V29.056C265.823 34.368 264.735 39.136 262.559 43.36C260.383 47.52 257.247 50.752 253.151 53.056ZM304.163 9.472L282.467 76H278.531L303.779 0.351995H304.547L329.987 76H325.859C321.315 62.432 317.699 51.52 315.011 43.264C312.323 35.008 309.827 27.424 307.523 20.512C305.283 13.536 304.163 9.856 304.163 9.472ZM302.435 54.496L308.195 76H304.739L298.979 54.496H302.435ZM386.053 76H382.981V6.68799L364.261 41.632L349.093 13.504L351.877 11.968L364.261 35.008L382.885 0.351995H386.053V76ZM345.541 76H342.469V0.351995H345.541L349.093 6.88L346.309 8.32L345.541 6.88V76ZM442.115 76H439.043V6.68799L420.323 41.632L405.155 13.504L407.939 11.968L420.323 35.008L438.947 0.351995H442.115V76ZM401.603 76H398.531V0.351995H401.603L405.155 6.88L402.371 8.32L401.603 6.88V76ZM457.282 47.968H454.594V0.351995H480.322V3.04H457.282V47.968ZM481.282 76H454.594V50.944H461.122V53.536H457.282V73.408H481.282V76ZM514.901 53.056L527.765 76H523.925L512.021 54.4C508.693 55.744 504.821 56.416 500.405 56.416H497.621C496.981 56.416 495.701 56.384 493.781 56.32V53.248C494.933 53.248 496.021 53.248 497.045 53.248H500.213C508.085 53.248 514.037 50.976 518.069 46.432C522.101 41.888 524.117 36.064 524.117 28.96V27.904C524.117 20.736 522.101 14.88 518.069 10.336C514.037 5.728 508.085 3.424 500.213 3.424H497.045V30.88C495.957 30.88 494.869 30.848 493.781 30.784V0.351995H500.405C509.109 0.351995 515.797 2.944 520.469 8.128C525.205 13.312 527.573 19.84 527.573 27.712V29.056C527.573 34.368 526.485 39.136 524.309 43.36C522.133 47.52 518.997 50.752 514.901 53.056ZM550.265 32.896C547.321 30.144 544.921 27.488 543.065 24.928C541.273 22.304 540.377 19.168 540.377 15.52V14.752C540.377 10.272 541.721 6.784 544.409 4.288C547.161 1.72799 550.489 0.447994 554.393 0.447994C557.401 0.447994 559.833 0.863995 561.689 1.696C563.609 2.528 565.465 3.776 567.257 5.44L565.049 7.936C563.449 6.46399 561.881 5.376 560.345 4.672C558.809 3.904 556.825 3.51999 554.393 3.51999C551.001 3.51999 548.345 4.57599 546.425 6.68799C544.569 8.73599 543.641 11.456 543.641 14.848V15.424C543.641 18.688 544.473 21.408 546.137 23.584C547.865 25.76 550.041 28.096 552.665 30.592L560.921 38.368C564.057 41.376 566.489 44.448 568.217 47.584C570.009 50.72 570.905 54.016 570.905 57.472V58.816C570.969 60.672 570.745 62.464 570.233 64.192H566.681C567.257 62.592 567.513 60.768 567.449 58.72V57.472C567.449 54.592 566.681 51.744 565.145 48.928C563.609 46.048 561.497 43.36 558.809 40.864L550.265 32.896ZM568.889 67.84C567.545 70.464 565.625 72.48 563.129 73.888C560.633 75.296 557.657 76 554.201 76C552.537 76 551.033 75.872 549.689 75.616V72.256C551.033 72.64 552.537 72.832 554.201 72.832C559.129 72.768 562.713 71.104 564.953 67.84H568.889ZM607.406 32.512H610.766L610.67 72.064H626.03C628.59 72.064 630.798 71.584 632.654 70.624C634.51 69.664 636.014 68.416 637.166 66.88C638.318 65.28 639.182 63.488 639.758 61.504C640.334 59.52 640.622 57.504 640.622 55.456C640.622 53.344 640.334 51.168 639.758 48.928C639.182 46.688 638.286 44.672 637.07 42.88C635.918 41.088 634.414 39.616 632.558 38.464C630.702 37.248 628.462 36.64 625.838 36.64H612.974L610.862 32.416H623.438C626.894 32.416 629.614 31.232 631.598 28.864C633.582 26.432 634.574 23.04 634.574 18.688C634.574 14.656 633.486 11.264 631.31 8.512C629.134 5.696 625.39 4.288 620.078 4.288H610.67L610.766 30.208H607.406V0.351995H619.79C625.422 0.351995 629.87 1.952 633.134 5.152C636.398 8.288 638.03 12.8 638.03 18.688C638.03 21.76 637.422 24.704 636.206 27.52C634.99 30.272 633.038 32.48 630.35 34.144C633.038 34.784 635.214 35.936 636.878 37.6C638.606 39.2 639.95 41.024 640.91 43.072C641.934 45.056 642.638 47.136 643.022 49.312C643.47 51.424 643.694 53.312 643.694 54.976C643.694 61.184 642.094 66.24 638.894 70.144C635.694 74.048 631.342 76 625.838 76H607.406V32.512ZM659.324 57.088H656.156V0.351995H659.324V57.088ZM685.148 76H656.156V63.328H659.324V72.736H685.148V76ZM731.194 76C724.538 76 718.49 74.592 713.05 71.776L714.49 68.992C719.482 71.616 725.05 72.928 731.194 72.928C741.05 72.928 749.402 69.504 756.25 62.656C759.578 59.264 762.106 55.648 763.834 51.808C765.562 47.904 766.426 43.488 766.426 38.56C766.362 28.704 762.938 20.448 756.154 13.792C749.37 7.008 740.858 3.584 730.618 3.51999C724.282 3.584 718.458 5.152 713.146 8.224C707.77 11.296 703.514 15.616 700.378 21.184L697.594 19.648C701.05 13.632 705.69 8.928 711.514 5.536C717.466 2.208 723.834 0.511997 730.618 0.447994C741.626 0.511997 750.874 4.192 758.362 11.488C765.85 18.848 769.594 27.872 769.594 38.56C769.594 43.936 768.634 48.736 766.714 52.96C764.858 57.184 762.074 61.12 758.362 64.768C750.874 72.256 741.818 76 731.194 76ZM804.527 76C797.551 75.232 792.047 71.616 788.015 65.152C784.047 58.688 782.062 50.272 782.062 39.904V36.352C782.062 25.536 784.303 16.864 788.783 10.336C793.327 3.744 799.279 0.447994 806.639 0.447994C810.031 0.447994 812.751 0.895994 814.799 1.79199C816.911 2.62399 818.895 3.776 820.751 5.248L818.831 7.648C817.423 6.56 815.855 5.6 814.127 4.768C812.399 3.936 809.903 3.51999 806.639 3.51999C802.863 3.51999 799.599 4.48 796.847 6.4C794.159 8.256 791.951 10.72 790.223 13.792C788.495 16.864 787.215 20.384 786.383 24.352C785.551 28.256 785.135 32.256 785.135 36.352V39.904C785.135 43.68 785.455 47.456 786.095 51.232C786.799 55.008 787.919 58.432 789.455 61.504C790.991 64.576 793.007 67.168 795.503 69.28C798.063 71.328 801.167 72.544 804.815 72.928L804.527 76ZM809.807 76L809.615 72.928C814.159 72.544 818.095 71.104 821.423 68.608V47.584H805.583V44.416H824.495V70.048L823.919 70.528C819.951 73.792 815.247 75.616 809.807 76Z" fill="black"/>
</svg>
